<svg width="169" height="56" viewBox="0 0 169 56" fill="none" xmlns="http://www.w3.org/2000/svg">
<g clip-path="url(#clip0)">
<path opacity="0.5" d="M55.5602 27.94C57.7002 63.28 -11.0998 69.11 1.56024 16.76C7.59024 -2.36999 51.1902 -12.53 55.5602 27.94Z" fill="#D16228"/>
<path opacity="0.5" d="M50.6199 27.81C52.4999 60.05 -4.03005 65.63 6.18995 17.82C11.0799 0.330001 46.8899 -9.1 50.6199 27.81Z" fill="#D16228"/>
<path opacity="0.5" d="M27.0298 7.36C50.9098 6.39 60.1398 52.33 20.6898 47.59C7.09981 42.54 -1.62019 13.66 27.0298 7.36Z" fill="#D16228"/>
<path d="M20.82 19H24.53C24.99 19 25.42 19.27 25.62 19.69L31.33 31.79H31.38L33.03 20.03C33.1 19.44 33.61 19 34.21 19H35.84C36.57 19 37.13 19.64 37.03 20.37L34.79 36.38C34.71 36.97 34.2 37.41 33.6 37.41H30.1C29.64 37.41 29.21 37.14 29.02 36.72L23.13 24.3H23.08L21.4 36.37C21.32 36.96 20.81 37.41 20.21 37.41H18.58C17.85 37.41 17.29 36.77 17.39 36.04L19.63 20.03C19.71 19.44 20.22 19 20.82 19Z" fill="white"/>
<path d="M38.06 37.41C38.9326 37.41 39.64 36.7026 39.64 35.83C39.64 34.9574 38.9326 34.25 38.06 34.25C37.1874 34.25 36.48 34.9574 36.48 35.83C36.48 36.7026 37.1874 37.41 38.06 37.41Z" fill="#189B73"/>
</g>
<g clip-path="url(#clip1)">
<path d="M64 19H70.4228L79.5549 34.0448H79.6117V19H84.3482V40.6592H78.1528L68.7934 25.232H68.7366V40.6401H64V19Z" fill="#189B73"/>
<path d="M102.612 38.0784C101.892 39.0152 100.964 39.7416 99.8463 40.2577C98.7284 40.7739 97.5917 41.0224 96.3981 41.0224C95.2613 41.0224 94.2003 40.8312 93.1961 40.468C92.192 40.1048 91.3205 39.5695 90.5816 38.9005C89.8427 38.2123 89.2553 37.3902 88.8385 36.4344C88.4217 35.4786 88.1943 34.408 88.1943 33.2228C88.1943 32.0376 88.4027 30.967 88.8385 30.0112C89.2553 29.0554 89.8427 28.2334 90.5816 27.5452C91.3205 26.857 92.192 26.3408 93.1961 25.9776C94.2003 25.6144 95.2613 25.4232 96.3981 25.4232C97.4401 25.4232 98.4064 25.6144 99.2589 25.9776C100.112 26.3408 100.85 26.8761 101.438 27.5452C102.025 28.2142 102.499 29.0554 102.821 30.0112C103.143 30.967 103.313 32.0376 103.313 33.2228V34.6566H92.7604C92.9498 35.5359 93.3288 36.2241 93.935 36.7594C94.5413 37.2947 95.2802 37.5432 96.1707 37.5432C96.9096 37.5432 97.5538 37.3711 98.0653 37.0461C98.5769 36.702 99.0316 36.2815 99.4105 35.7462L102.612 38.0784ZM98.7663 31.5405C98.7853 30.7568 98.539 30.1068 98.0085 29.5524C97.478 28.998 96.8149 28.7304 95.9812 28.7304C95.4697 28.7304 95.0339 28.8069 94.655 28.9789C94.2761 29.151 93.935 29.3421 93.6698 29.6098C93.4045 29.8583 93.1772 30.1641 93.0256 30.4891C92.8741 30.8332 92.7793 31.1773 92.7604 31.5405H98.7663Z" fill="#189B73"/>
<path d="M115.117 43.0679C114.814 43.8708 114.53 44.559 114.245 45.1707C113.961 45.7825 113.601 46.2986 113.165 46.7192C112.73 47.1398 112.18 47.4456 111.517 47.675C110.854 47.8853 109.964 48 108.884 48C107.709 48 106.572 47.8088 105.492 47.4456L106.098 43.6796C106.781 43.9855 107.501 44.1384 108.22 44.1384C108.732 44.1384 109.149 44.0811 109.471 43.9664C109.793 43.8517 110.058 43.6988 110.267 43.4694C110.475 43.2591 110.665 42.9914 110.797 42.6856C110.93 42.3797 111.081 42.0165 111.252 41.615L111.593 40.7548L105.113 25.7864H110.02L113.81 35.6124H113.866L117.106 25.7864H121.767L115.117 43.0679Z" fill="#189B73"/>
<path d="M124.59 19H131.752L136.696 33.1272H136.753L141.717 19H148.841V40.6592H144.104V24.0468H144.048L138.402 40.6592H134.802L129.383 24.0468H129.326V40.6592H124.59V19Z" fill="#189B73"/>
<path d="M152.63 33.2228C152.63 32.0376 152.839 30.967 153.275 30.0112C153.691 29.0554 154.279 28.2334 155.018 27.5452C155.757 26.857 156.628 26.3408 157.632 25.9776C158.636 25.6144 159.697 25.4232 160.834 25.4232C161.971 25.4232 163.032 25.6144 164.036 25.9776C165.04 26.3408 165.912 26.8761 166.651 27.5452C167.389 28.2334 167.977 29.0554 168.394 30.0112C168.81 30.967 169.038 32.0376 169.038 33.2228C169.038 34.408 168.829 35.4786 168.394 36.4344C167.977 37.3902 167.389 38.2123 166.651 38.9005C165.912 39.5887 165.04 40.1048 164.036 40.468C163.032 40.8312 161.971 41.0224 160.834 41.0224C159.697 41.0224 158.636 40.8312 157.632 40.468C156.628 40.1048 155.757 39.5695 155.018 38.9005C154.279 38.2123 153.691 37.3902 153.275 36.4344C152.858 35.4786 152.63 34.408 152.63 33.2228ZM157.177 33.2228C157.177 34.3507 157.5 35.2492 158.125 35.9374C158.75 36.6256 159.659 36.9697 160.815 36.9697C161.971 36.9697 162.861 36.6256 163.506 35.9374C164.15 35.2492 164.453 34.3316 164.453 33.2228C164.453 32.0949 164.131 31.1964 163.506 30.5082C162.861 29.82 161.971 29.4759 160.815 29.4759C159.659 29.4759 158.769 29.82 158.125 30.5082C157.5 31.1964 157.177 32.0949 157.177 33.2228Z" fill="#189B73"/>
</g>
<defs>
<clipPath id="clip0">
<rect width="55.6" height="55.27" fill="white"/>
</clipPath>
<clipPath id="clip1">
<rect width="105" height="29" fill="white" transform="translate(64 19)"/>
</clipPath>
</defs>
</svg>
