<svg width="1440" height="400" viewBox="0 0 1440 400" fill="none" xmlns="http://www.w3.org/2000/svg">
<rect width="1440" height="400" fill="white"/>
<path fill-rule="evenodd" clip-rule="evenodd" d="M1440 291.932L1419.6 309.943C1400.4 327.954 1359.6 363.977 1320 351.97C1280.4 339.962 1359.6 249.905 1320 213.882C1280.4 177.859 1187.1 189.867 1147.5 213.882C1107.9 237.897 999.6 303.939 960 279.924C920.4 255.909 943 185 901.5 185C800 185 759.6 183.863 720 231.893C680.4 279.924 639.6 303.939 600 297.935C560.4 291.932 519.6 255.909 480 213.882C440.4 171.855 427 142.5 380 142.5C333 142.5 279.6 267.916 240 267.916C200.4 267.916 160 153.844 102 153.844C57.5 153.844 39.5999 195.87 20.3999 225.89L0 255.909V400H20.3999C39.5999 400 80.4 400 120 400C159.6 400 200.4 400 240 400C279.6 400 320.4 400 360 400C399.6 400 440.4 400 480 400C519.6 400 560.4 400 600 400C639.6 400 680.4 400 720 400C759.6 400 800.4 400 840 400C879.6 400 920.4 400 960 400C999.6 400 1040.4 400 1080 400C1119.6 400 1160.4 400 1200 400C1239.6 400 1280.4 400 1320 400C1359.6 400 1400.4 400 1419.6 400H1440V291.932Z" fill="#189B73" fill-opacity="0.25"/>
<path fill-rule="evenodd" clip-rule="evenodd" d="M0 291.932L20.4 309.943C39.6 327.954 80.4 363.977 120 351.97C159.6 339.962 80.4 249.905 120 213.882C159.6 177.859 252.9 189.867 292.5 213.882C332.1 237.897 440.4 303.939 480 279.924C519.6 255.909 542.5 217.656 639.5 207C680 207 680.4 183.863 720 231.893C759.6 279.924 800.4 303.939 840 297.935C879.6 291.932 920.4 255.909 960 213.882C999.6 171.855 1040.4 123.825 1080 147.84C1119.6 171.855 1160.4 267.916 1200 267.916C1239.6 267.916 1280.4 171.855 1320 153.844C1359.6 135.832 1400.4 195.87 1419.6 225.89L1440 255.909V400H1419.6C1400.4 400 1359.6 400 1320 400C1280.4 400 1239.6 400 1200 400C1160.4 400 1119.6 400 1080 400C1040.4 400 999.6 400 960 400C920.4 400 879.6 400 840 400C800.4 400 759.6 400 720 400C680.4 400 639.6 400 600 400C560.4 400 519.6 400 480 400C440.4 400 399.6 400 360 400C320.4 400 279.6 400 240 400C200.4 400 159.6 400 120 400C80.4 400 39.6 400 20.4 400H0V291.932Z" fill="#47AD8E"/>
<path fill-rule="evenodd" clip-rule="evenodd" d="M0 220.129L30 226.125C60 232.12 120 244.112 180 262.099C240 280.086 300 304.069 360 298.073C420 292.078 451.5 181 540 181C617.5 181 660 262.099 720 274.09C780 286.082 857 178.518 917 202.501C983 202.501 1020 292.078 1080 304.069C1140 316.061 1200 340.044 1260 334.048C1320 328.052 1380 292.078 1410 274.091L1440 256.103V400.001H1410C1380 400.001 1320 400.001 1260 400.001C1200 400.001 1140 400.001 1080 400.001C1020 400.001 960 400.001 900 400.001C840 400.001 780 400.001 720 400.001C660 400.001 600 400.001 540 400.001C480 400.001 420 400.001 360 400.001C300 400.001 240 400.001 180 400.001C120 400.001 60 400.001 30 400.001H0V220.129Z" fill="#189B73"/>
</svg>
